<svg width="32" height="31" viewBox="0 0 32 31" fill="none" xmlns="http://www.w3.org/2000/svg">
<path d="M8.26115 29.458C3.35944 29.458 1.79419 27.9362 1.79419 24.7785C1.79419 21.6208 1.79419 17.772 1.79419 16.5165C1.79419 15.261 2.9954 12.873 5.65628 12.873C6.8389 12.873 7.47244 12.873 7.47244 12.873C3.02455 12.873 2.30417 14.8299 2.30417 16.5165C2.30417 18.2031 2.30417 19.961 2.30417 24.7785C2.30417 28.6325 6.27549 29.504 8.26115 29.458ZM8.26115 29.458C13.1629 29.458 21.2533 29.2688 23.7437 29.2688M23.7437 29.2688C28.9162 29.2688 29.1397 27.2904 29.3045 24.2849C29.4693 21.2794 29.6752 17.9678 29.7164 16.1416M23.7437 29.2688C28.9162 29.2688 29.0741 28.3266 29.2389 25.3211M29.7164 16.1416C29.7576 14.3155 27.9864 13.1449 26.6683 13.1449C25.3502 13.1449 23.7437 13.1449 23.7437 13.1449C25.1758 12.8556 27.9046 12.5639 28.9162 13.526C30.1806 14.7288 30.0681 15.9095 29.9679 16.7884C29.8678 17.6673 29.2757 24.6358 29.2389 25.3211M29.7164 16.1416C29.6752 17.9678 29.4037 22.3156 29.2389 25.3211" stroke="black" stroke-width="3" stroke-linecap="round" stroke-linejoin="round"/>
<path d="M15.5904 1.50338C16.1169 1.42224 22.4749 5.55812 22.4749 5.55812L16.3212 5.68618C16.3212 6.53155 16.8008 19.0687 16.3212 20.1878C15.9375 21.083 15.6142 20.5608 15.5005 20.1878V5.70326L8.52603 5.8484C8.52603 5.8484 9.99527 4.35051 11.9849 3.10795C13.9744 1.86539 15.0639 1.58451 15.5904 1.50338Z" fill="black"/>
<path d="M15.5005 5.70326L8.52603 5.8484C8.52603 5.8484 9.99527 4.35051 11.9849 3.10795C13.9744 1.86539 15.0639 1.58451 15.5904 1.50338C16.1169 1.42224 22.4749 5.55812 22.4749 5.55812L16.3212 5.68618M15.5005 5.70326V20.1878C15.6142 20.5608 15.9375 21.083 16.3212 20.1878C16.8008 19.0687 16.3212 6.53155 16.3212 5.68618M15.5005 5.70326L16.3212 5.68618" stroke="black" stroke-width="3" stroke-linecap="round" stroke-linejoin="round"/>
</svg>
