<svg width="151" height="154" viewBox="0 0 151 154" fill="none" xmlns="http://www.w3.org/2000/svg">
<g filter="url(#filter0_d_124_6177)">
<rect x="2" y="2" width="145" height="141.366" rx="32" fill="white"/>
<path d="M2 31C2 39.2624 2.47832 47.4307 2.47832 56.2177M2.47832 56.2177C2.47832 65.0046 3.84674 70.9751 2.47823 81.7263C1.10971 92.4775 1.9999 107.156 1.9999 113H2.9999C2.9999 107.156 2.25209 89.4812 2.62187 87.0052C3.59297 80.503 2.47872 56.6219 2.47832 56.2177Z" stroke="black" stroke-width="3" stroke-miterlimit="10" stroke-linecap="round" stroke-linejoin="round"/>
<path d="M116 143C111.767 143 109.146 143.332 94.6866 143M94.6866 143C94.6866 143 79.4765 143.366 74.5208 143.366C69.5651 143.366 68.1635 142.899 57.7015 143C49.8798 143.075 39.7089 142.966 32 143L32.0001 144C55.194 144 71.6008 143 94.6866 143Z" stroke="black" stroke-width="3" stroke-miterlimit="10" stroke-linecap="round" stroke-linejoin="round"/>
<path d="M148.5 62.3194C148.349 66.3512 147.342 81.2761 147.5 90.2222C147.658 99.1683 147 107.156 147 113H148C148 113 147.967 98.7767 147.967 92.5C147.967 90.2796 147.914 81.7682 148 78.1023C148.158 71.4053 148.5 68.5233 148.5 62.3194ZM148.5 62.3194C148.5 57.7941 148.439 57.7828 148.5 52.6389C148.568 46.8709 147.967 36.6944 147 31" stroke="black" stroke-width="3" stroke-miterlimit="10" stroke-linecap="round" stroke-linejoin="round"/>
<path d="M32 2C36.5591 2 45.079 2.5 58.9552 2.5C64.0938 2.5 69.6345 1.77632 74.5552 1.68997C82.9226 1.54314 89.8811 2 92.806 2C97.4509 2 106.597 1.99999 116 1.99999" stroke="black" stroke-width="3" stroke-miterlimit="10" stroke-linecap="round" stroke-linejoin="round"/>
<path d="M147 112C147 134 134 143 116 143C145 143 148 122.263 148 112L147 112Z" stroke="black" stroke-width="3" stroke-linecap="round" stroke-linejoin="round"/>
<path d="M2 31C2 20.737 8.00002 2 32 2" stroke="black" stroke-width="3" stroke-linecap="round" stroke-linejoin="round"/>
<path d="M3 113C3 132.697 15 143 32 143L32 144C8.00002 144 2 126.342 2 113L3 113Z" stroke="black" stroke-width="3" stroke-linecap="round" stroke-linejoin="round"/>
<path d="M116 2C132.682 2 144.042 16.2125 147 31" stroke="black" stroke-width="3" stroke-linecap="round" stroke-linejoin="round"/>
</g>
<path d="M66.7778 64.2717C66.5747 64.2689 66.3276 64.2615 66.0386 64.2529C65.681 64.2422 65.2594 64.2296 64.7775 64.2213C63.8766 64.2058 62.8201 64.2079 62.0069 64.3044C61.6191 64.3504 61.1804 64.4428 60.7794 64.668C60.322 64.9248 59.9957 65.3079 59.815 65.7723C59.661 66.1682 59.6415 66.5566 59.636 66.7927C59.6329 66.9219 59.6342 67.0545 59.6353 67.1666L59.6354 67.1788C59.6365 67.2933 59.6375 67.3976 59.6363 67.5074C59.6072 70.126 59.6402 75.2831 59.657 77.7056L59.6573 77.745C59.6595 78.0775 59.6621 78.4517 59.7046 78.7635C59.7501 79.0968 59.8778 79.6838 60.4037 80.131C60.8781 80.5344 61.4349 80.6055 61.7045 80.6333C61.9417 80.6578 62.2405 80.6671 62.5293 80.6761C62.5994 80.6783 62.6689 80.6805 62.7369 80.6828C65.8378 80.7907 72.5977 80.6993 77.6109 80.5079C78.7449 80.4646 79.9721 80.5141 81.1001 80.5596C81.6768 80.5829 82.2277 80.6051 82.7269 80.6133L82.7571 80.6139C83.0008 80.6179 83.2905 80.6227 83.5516 80.6022C83.8285 80.5804 84.227 80.522 84.6226 80.2997C85.5108 79.8006 85.7304 78.8719 85.837 78.3137C86.0918 76.9796 86.2914 74.7103 86.3546 72.5182C86.4164 70.3766 86.3587 68.0335 85.9924 66.6593C85.8401 66.0878 85.5458 65.4398 84.8736 65.0238C84.2985 64.6679 83.6542 64.6322 83.2995 64.6132C82.7313 64.5828 81.9977 64.6036 81.3489 64.622C81.0185 64.6314 80.71 64.6402 80.4567 64.6412C80.0212 64.643 79.68 64.6278 79.4284 64.5906C79.3387 64.5774 79.279 64.5639 79.243 64.5543C79.217 64.5253 79.1844 64.4856 79.1448 64.4325C79.055 64.3122 78.9567 64.1606 78.834 63.9621C78.8032 63.9122 78.7699 63.8576 78.7343 63.7993C78.5239 63.454 78.2345 62.9793 77.9096 62.593C77.2129 61.7646 76.4013 61.4997 75.5996 61.3927C74.2542 61.2132 72.1072 61.2509 70.7868 61.3875C70.2993 61.4379 69.7678 61.5262 69.2527 61.8114C68.7431 62.0936 68.3897 62.4922 68.0992 62.8501L68.0951 62.8552C67.7539 63.2756 67.417 63.6907 67.0892 64.0074C66.9534 64.1385 66.8494 64.2226 66.7778 64.2717ZM66.7157 64.3104C66.7094 64.3137 66.7064 64.3149 66.7064 64.3147C66.7065 64.3145 66.7096 64.3129 66.7157 64.3104Z" stroke="#ABB2B6" stroke-width="3" stroke-linecap="round" stroke-linejoin="round"/>
<path d="M75.2402 72.0043C75.2402 73.2814 73.9307 74.1339 72.6536 74.1339C71.3765 74.1339 70.2979 73.2814 70.2979 72.0043C70.2979 70.7272 71.3765 69.6194 72.6536 69.6194C73.9307 69.6194 75.2402 70.7272 75.2402 72.0043Z" fill="#ABB2B6" stroke="#ABB2B6" stroke-width="3" stroke-linecap="round" stroke-linejoin="round"/>
<defs>
<filter id="filter0_d_124_6177" x="0.21582" y="0.160889" width="149.789" height="153.339" filterUnits="userSpaceOnUse" color-interpolation-filters="sRGB">
<feFlood flood-opacity="0" result="BackgroundImageFix"/>
<feColorMatrix in="SourceAlpha" type="matrix" values="0 0 0 0 0 0 0 0 0 0 0 0 0 0 0 0 0 0 127 0" result="hardAlpha"/>
<feOffset dy="8"/>
<feComposite in2="hardAlpha" operator="out"/>
<feColorMatrix type="matrix" values="0 0 0 0 0.666667 0 0 0 0 0.694118 0 0 0 0 0.713726 0 0 0 1 0"/>
<feBlend mode="normal" in2="BackgroundImageFix" result="effect1_dropShadow_124_6177"/>
<feBlend mode="normal" in="SourceGraphic" in2="effect1_dropShadow_124_6177" result="shape"/>
</filter>
</defs>
</svg>
