<svg width="151" height="154" viewBox="0 0 151 154" fill="none" xmlns="http://www.w3.org/2000/svg">
<g filter="url(#filter0_d_145_2942)">
<rect x="2" y="2" width="145" height="141.366" rx="32" fill="white"/>
<path d="M2.00012 31C2.00012 39.2624 2.47844 47.4307 2.47844 56.2177M2.47844 56.2177C2.47844 65.0046 3.84686 70.9751 2.47835 81.7263C1.10984 92.4775 2.00003 107.156 2.00003 113H3.00003C3.00003 107.156 2.25221 89.4812 2.622 87.0052C3.59309 80.503 2.47884 56.6219 2.47844 56.2177Z" stroke="black" stroke-width="3" stroke-miterlimit="10" stroke-linecap="round" stroke-linejoin="round"/>
<path d="M116 143C111.767 143 109.146 143.332 94.6866 143M94.6866 143C94.6866 143 79.4765 143.366 74.5208 143.366C69.5651 143.366 68.1635 142.899 57.7015 143C49.8798 143.075 39.7089 142.966 32 143L32.0001 144C55.194 144 71.6008 143 94.6866 143Z" stroke="black" stroke-width="3" stroke-miterlimit="10" stroke-linecap="round" stroke-linejoin="round"/>
<path d="M148.5 62.3194C148.349 66.3512 147.342 81.2761 147.5 90.2222C147.658 99.1683 147 107.156 147 113H148C148 113 147.967 98.7767 147.967 92.5C147.967 90.2796 147.914 81.7682 148 78.1023C148.158 71.4053 148.5 68.5233 148.5 62.3194ZM148.5 62.3194C148.5 57.7941 148.439 57.7828 148.5 52.6389C148.568 46.8709 147.967 36.6944 147 31" stroke="black" stroke-width="3" stroke-miterlimit="10" stroke-linecap="round" stroke-linejoin="round"/>
<path d="M32 2C36.5591 2 45.079 2.5 58.9552 2.5C64.0938 2.5 69.6345 1.77632 74.5552 1.68997C82.9226 1.54314 89.8811 2 92.806 2C97.4509 2 106.597 1.99999 116 1.99999" stroke="black" stroke-width="3" stroke-miterlimit="10" stroke-linecap="round" stroke-linejoin="round"/>
<path d="M147 112C147 134 134 143 116 143C145 143 148 122.263 148 112L147 112Z" stroke="black" stroke-width="3" stroke-linecap="round" stroke-linejoin="round"/>
<path d="M2 31C2 20.737 8.00002 2 32 2" stroke="black" stroke-width="3" stroke-linecap="round" stroke-linejoin="round"/>
<path d="M3 113C3 132.697 15 143 32 143L32 144C8.00002 144 2 126.342 2 113L3 113Z" stroke="black" stroke-width="3" stroke-linecap="round" stroke-linejoin="round"/>
<path d="M116 2C132.683 2 144.043 16.2125 147 31" stroke="black" stroke-width="3" stroke-linecap="round" stroke-linejoin="round"/>
</g>
<path d="M66.778 64.2717C66.5748 64.2689 66.3277 64.2615 66.0388 64.2529C65.6812 64.2422 65.2595 64.2296 64.7777 64.2213C63.8767 64.2058 62.8202 64.2079 62.007 64.3044C61.6192 64.3504 61.1805 64.4428 60.7795 64.668C60.3221 64.9248 59.9958 65.3079 59.8152 65.7723C59.6611 66.1682 59.6416 66.5566 59.6361 66.7927C59.633 66.9219 59.6343 67.0545 59.6354 67.1666L59.6355 67.1788C59.6366 67.2933 59.6376 67.3976 59.6364 67.5074C59.6074 70.126 59.6404 75.2831 59.6572 77.7056L59.6574 77.745C59.6597 78.0775 59.6622 78.4517 59.7047 78.7635C59.7502 79.0968 59.8779 79.6838 60.4038 80.131C60.8782 80.5344 61.4351 80.6055 61.7047 80.6333C61.9419 80.6578 62.2406 80.6671 62.5294 80.6761C62.5995 80.6783 62.6691 80.6805 62.737 80.6828C65.838 80.7907 72.5978 80.6993 77.6111 80.5079C78.745 80.4646 79.9722 80.5141 81.1002 80.5596C81.6769 80.5829 82.2278 80.6051 82.727 80.6133L82.7573 80.6139C83.0009 80.6179 83.2906 80.6227 83.5518 80.6022C83.8286 80.5804 84.2271 80.522 84.6227 80.2997C85.5109 79.8006 85.7305 78.8719 85.8371 78.3137C86.0919 76.9796 86.2915 74.7103 86.3547 72.5182C86.4165 70.3766 86.3588 68.0335 85.9926 66.6593C85.8402 66.0878 85.5459 65.4398 84.8737 65.0238C84.2986 64.6679 83.6543 64.6322 83.2996 64.6132C82.7314 64.5828 81.9978 64.6036 81.349 64.622C81.0186 64.6314 80.7102 64.6402 80.4568 64.6412C80.0213 64.643 79.6801 64.6278 79.4285 64.5906C79.3388 64.5774 79.2791 64.5639 79.2432 64.5543C79.2171 64.5253 79.1845 64.4856 79.1449 64.4325C79.0552 64.3122 78.9568 64.1606 78.8341 63.9621C78.8033 63.9122 78.77 63.8576 78.7344 63.7993C78.524 63.454 78.2346 62.9793 77.9098 62.593C77.213 61.7646 76.4014 61.4997 75.5997 61.3927C74.2543 61.2132 72.1073 61.2509 70.787 61.3875C70.2994 61.4379 69.7679 61.5262 69.2528 61.8114C68.7432 62.0936 68.3898 62.4922 68.0994 62.8501L68.0952 62.8552C67.754 63.2756 67.4172 63.6907 67.0893 64.0074C66.9536 64.1385 66.8495 64.2226 66.778 64.2717ZM66.7158 64.3104C66.7096 64.3137 66.7065 64.3149 66.7066 64.3147C66.7066 64.3145 66.7097 64.3129 66.7158 64.3104Z" stroke="#ABB2B6" stroke-width="3" stroke-linecap="round" stroke-linejoin="round"/>
<path d="M75.2402 72.0043C75.2402 73.2814 73.9307 74.1339 72.6536 74.1339C71.3765 74.1339 70.2979 73.2814 70.2979 72.0043C70.2979 70.7272 71.3765 69.6194 72.6536 69.6194C73.9307 69.6194 75.2402 70.7272 75.2402 72.0043Z" fill="#ABB2B6" stroke="#ABB2B6" stroke-width="3" stroke-linecap="round" stroke-linejoin="round"/>
<defs>
<filter id="filter0_d_145_2942" x="0.216064" y="0.160889" width="149.789" height="153.339" filterUnits="userSpaceOnUse" color-interpolation-filters="sRGB">
<feFlood flood-opacity="0" result="BackgroundImageFix"/>
<feColorMatrix in="SourceAlpha" type="matrix" values="0 0 0 0 0 0 0 0 0 0 0 0 0 0 0 0 0 0 127 0" result="hardAlpha"/>
<feOffset dy="8"/>
<feComposite in2="hardAlpha" operator="out"/>
<feColorMatrix type="matrix" values="0 0 0 0 0.666667 0 0 0 0 0.694118 0 0 0 0 0.713726 0 0 0 1 0"/>
<feBlend mode="normal" in2="BackgroundImageFix" result="effect1_dropShadow_145_2942"/>
<feBlend mode="normal" in="SourceGraphic" in2="effect1_dropShadow_145_2942" result="shape"/>
</filter>
</defs>
</svg>
