<svg width="437" height="844" viewBox="0 0 437 844" fill="none" xmlns="http://www.w3.org/2000/svg">
<rect width="437" height="844" fill="#FAF1E7"/>
<path d="M0 40.0271L437 40.0271" stroke="white" stroke-opacity="0.6" stroke-width="3"/>
<path d="M0 80.0544L437 80.0544" stroke="white" stroke-opacity="0.6" stroke-width="3"/>
<path d="M0 120.081L437 120.081" stroke="white" stroke-opacity="0.6" stroke-width="3"/>
<path d="M0 160.109L437 160.109" stroke="white" stroke-opacity="0.6" stroke-width="3"/>
<path d="M0 320.217L437 320.217" stroke="white" stroke-opacity="0.6" stroke-width="3"/>
<path d="M0 480.325L437 480.325" stroke="white" stroke-opacity="0.6" stroke-width="3"/>
<path d="M0 720.488H437" stroke="white" stroke-opacity="0.6" stroke-width="3"/>
<path d="M0 360.244L437 360.244" stroke="white" stroke-opacity="0.6" stroke-width="3"/>
<path d="M0 400.271L437 400.271" stroke="white" stroke-opacity="0.6" stroke-width="3"/>
<path d="M0 520.352H437" stroke="white" stroke-opacity="0.6" stroke-width="3"/>
<path d="M0 440.298L437 440.298" stroke="white" stroke-opacity="0.6" stroke-width="3"/>
<path d="M0 200.136L437 200.136" stroke="white" stroke-opacity="0.6" stroke-width="3"/>
<path d="M0 560.379H437" stroke="white" stroke-opacity="0.6" stroke-width="3"/>
<path d="M0 640.434H437" stroke="white" stroke-opacity="0.6" stroke-width="3"/>
<path d="M0 600.407H437" stroke="white" stroke-opacity="0.6" stroke-width="3"/>
<path d="M0 680.461H437" stroke="white" stroke-opacity="0.6" stroke-width="3"/>
<path d="M0 240.163L437 240.163" stroke="white" stroke-opacity="0.6" stroke-width="3"/>
<path d="M0 280.19L437 280.19" stroke="white" stroke-opacity="0.6" stroke-width="3"/>
<path d="M0 760.515H437" stroke="white" stroke-opacity="0.6" stroke-width="3"/>
<path d="M0 801.686H437" stroke="white" stroke-opacity="0.6" stroke-width="3"/>
</svg>
