<svg width="392" height="1544" viewBox="0 0 392 1544" fill="none" xmlns="http://www.w3.org/2000/svg">
<g filter="url(#filter0_d_96_3544)">
<rect x="2" y="2" width="388" height="719" rx="32" fill="#FAF1E7"/>
<path d="M2 34H34V2C23.8413 2 15.8322 5.63016 13.2925 8.13015C10.7528 10.6301 2 21 2 34Z" fill="white"/>
<path d="M2 34C2 22.6753 8.40002 2 34 2" stroke="black" stroke-width="3" stroke-linecap="round" stroke-linejoin="round"/>
<rect width="324" height="32" transform="translate(34 2)" fill="white"/>
<path d="M34 2C51.7201 2 67.1805 2.27092 76.2962 2.27092M76.2962 2.27092C85.4118 2.27092 125.885 2.03685 143.022 2.03684M76.2962 2.27092C76.2962 2.27092 96.0639 2.99959 107.654 2.99959C119.244 2.99959 143.022 2.03684 143.022 2.03684M358 2C339.863 2 349.911 2.27092 331.897 2.27092C321.628 2.27092 309.067 1.8808 291.059 2.03684M191.26 2.99959C203.723 2.97705 268.862 2.22918 291.059 2.03684M191.26 2.99959C178.371 3.02291 160.159 2.03684 143.022 2.03684M191.26 2.99959C191.26 2.99959 222.51 2.99959 240.012 2.99959M291.059 2.03684C291.059 2.03684 257.514 2.99959 240.012 2.99959M143.022 2.03684C153.526 2.03684 177.879 2.03684 191.26 2.03684C204.641 2.03684 229.336 2.67868 240.012 2.99959" stroke="black" stroke-width="3" stroke-miterlimit="10" stroke-linecap="round" stroke-linejoin="round"/>
<path d="M358 2V34H390C390 23.8413 381.5 13.1746 379 10.6349C376.5 8.09524 371 2 358 2Z" fill="white"/>
<path d="M358 2C375.22 2 390 18.5161 390 34" stroke="black" stroke-width="3" stroke-linecap="round" stroke-linejoin="round"/>
<rect width="32" height="1468" transform="translate(2 34)" fill="white"/>
<path d="M34 34H2C2 116.246 1.07176 199.552 1.5 386.567C1.87288 549.408 1.47172 731.183 1.47172 840.168C1.47172 1074.32 2 1285.49 2 1502H34V34Z" fill="white"/>
<path d="M2 34C2 216.406 2 179.208 2 373.195M2 373.195C2 567.183 2.08245 920.747 2.53325 1158.38C2.98405 1396.01 2 1486.04 2 1502H3C3 1454.95 3.29537 945.937 3.29537 890.491C3.29537 835.044 2.53325 552.792 2 373.195Z" stroke="black" stroke-width="3" stroke-miterlimit="10" stroke-linecap="round" stroke-linejoin="round"/>
<rect width="324" height="1468" transform="translate(34 34)" fill="white"/>
<path d="M358 34.0001H390C390 116.246 388.78 193.495 388.338 380.511C387.953 543.352 388.338 727.779 388.338 836.764C388.338 1070.91 390 1285.49 390 1502H358V34.0001Z" fill="white"/>
<path d="M388.813 776.481C388.813 993.612 390 1130.23 390 1272.2C390 1414.17 390 1486.63 390 1502H389C389 1344.44 388.5 1344.44 388.5 1271.42C388.5 1069.07 388.719 867.673 388.813 776.481ZM388.813 776.481C388.813 674.126 388.179 465.044 388.216 348.697C388.258 218.233 390 159.976 390 34" stroke="black" stroke-width="3" stroke-miterlimit="10" stroke-linecap="round" stroke-linejoin="round"/>
<path d="M34 1534V1502C22.7128 1502 4.32762 1502 2 1502C2 1525.53 19.1981 1534 34 1534Z" fill="white"/>
<path d="M34 1534C8.40002 1534 2 1513.32 2 1502H3C2.88302 1507.76 4.66752 1519.6 12.2777 1525.93C19.8879 1532.26 30.57 1533 34 1533V1534Z" stroke="black" stroke-width="3" stroke-linecap="round" stroke-linejoin="round"/>
<path d="M34 1502H358V1534C352.591 1534 312.007 1532.68 261.559 1532.68C212.876 1532.68 154.81 1534.51 109.479 1534.86C68.0795 1535.17 37.3032 1534 34 1534V1502Z" fill="white"/>
<path d="M358 1534C340.37 1534 338.443 1533.26 320.932 1533.26C310.95 1533.26 310.433 1532.87 292.927 1533.02C292.927 1533.02 259.689 1532.4 242.972 1532.4C226.255 1532.4 215.529 1533.02 195.914 1533.02C176.3 1533.02 159.234 1533.02 149.023 1533.02M149.023 1533.02C132.364 1533.02 93.0207 1533.26 84.1595 1533.26C75.2983 1533.26 51.2293 1533 34.0039 1533C34.0039 1533 33.9952 1534 34.0039 1534C57.3014 1534 82.1716 1533.71 109.036 1533.71C120.302 1533.71 149.023 1533.02 149.023 1533.02Z" stroke="black" stroke-width="3" stroke-miterlimit="10" stroke-linecap="round" stroke-linejoin="round"/>
<path d="M390 1502H358V1534C368.382 1534 376.016 1528.74 381.579 1522.72C386.03 1517.91 390 1509.66 390 1502Z" fill="white"/>
<path d="M358 1534C365.719 1534 372.97 1530.69 378.621 1525.64M378.621 1525.64C385.577 1519.42 390 1510.54 390 1502H389C388.783 1506.8 385.981 1518.28 378.621 1525.64Z" stroke="black" stroke-width="3" stroke-linecap="round" stroke-linejoin="round"/>
</g>
<defs>
<filter id="filter0_d_96_3544" x="0.5" y="0.5" width="391" height="1543" filterUnits="userSpaceOnUse" color-interpolation-filters="sRGB">
<feFlood flood-opacity="0" result="BackgroundImageFix"/>
<feColorMatrix in="SourceAlpha" type="matrix" values="0 0 0 0 0 0 0 0 0 0 0 0 0 0 0 0 0 0 127 0" result="hardAlpha"/>
<feOffset dy="8"/>
<feColorMatrix type="matrix" values="0 0 0 0 0.694118 0 0 0 0 0.721569 0 0 0 0 0.741176 0 0 0 1 0"/>
<feBlend mode="multiply" in2="BackgroundImageFix" result="effect1_dropShadow_96_3544"/>
<feBlend mode="normal" in="SourceGraphic" in2="effect1_dropShadow_96_3544" result="shape"/>
</filter>
</defs>
</svg>
