<svg width="48" height="46" viewBox="0 0 48 46" fill="none" xmlns="http://www.w3.org/2000/svg">
<g filter="url(#filter0_d_156_4372)">
<path d="M2.48167 20.5472C1.69792 31.0595 6.12895 43 23.5958 43C35.0066 43 42.1467 36.1534 44.1554 25.0835C46.1635 14.0137 37.5811 3.31284 26.4415 2.02136C15.3019 0.729886 3.52666 6.53086 2.48167 20.5472Z" fill="white"/>
<path d="M2.48167 20.5472C1.69792 31.0595 6.12895 43 23.5958 43C35.0066 43 42.1467 36.1534 44.1554 25.0835C46.1635 14.0137 37.5811 3.31284 26.4415 2.02136C15.3019 0.729886 3.52666 6.53086 2.48167 20.5472Z" stroke="black" stroke-width="2" stroke-miterlimit="10" stroke-linecap="round" stroke-linejoin="round"/>
</g>
<path fill-rule="evenodd" clip-rule="evenodd" d="M27.992 29.9879C27.9921 29.9879 27.9921 29.988 28.8219 28.7384L27.9921 29.988C28.5489 30.3577 29.2832 30.3144 29.7927 29.8818C30.3022 29.4493 30.4641 28.7318 30.1896 28.1224C29.4592 26.5007 28.3866 25.3861 27.2859 24.3438C26.8003 23.8839 26.3663 23.4803 25.9726 23.1142L25.9726 23.1142C25.7665 22.9225 25.5715 22.7412 25.3859 22.5675C26.4434 21.4221 27.5649 20.1004 28.4309 19.0544C28.89 18.4998 29.281 18.0182 29.5574 17.6749C29.6957 17.5032 29.8055 17.3659 29.881 17.2712L29.9678 17.1621L29.9906 17.1333L29.9966 17.1257L29.9982 17.1237L29.9987 17.1231L29.9988 17.1229C29.9989 17.1228 29.9989 17.1228 28.822 16.1928L29.9989 17.1228C30.2082 16.858 30.322 16.5303 30.322 16.1928C30.322 15.8839 30.2133 15.3314 29.6833 14.9565C29.235 14.6393 28.7805 14.6709 28.6273 14.6889C28.3235 14.7246 28.0944 14.8479 28.0453 14.8743L28.0403 14.877C27.8839 14.9603 27.7357 15.0674 27.6377 15.1405C27.4142 15.3075 27.1325 15.5419 26.8419 15.7956C26.2562 16.307 25.533 16.9853 24.9854 17.5636C24.2311 18.3601 23.4792 19.1037 22.819 19.7183C22.4265 19.2925 21.9287 18.7806 21.3765 18.2433C20.2133 17.1115 18.7324 15.7924 17.4392 14.9303C16.8554 14.5411 16.0799 14.6086 15.5721 15.0928C15.0643 15.577 14.96 16.3485 15.321 16.9501C15.8873 17.894 16.5749 18.943 17.177 19.8614L17.177 19.8615L17.307 20.0598C17.9723 21.0751 18.4548 21.8228 18.6327 22.1787C18.7535 22.4202 18.9123 22.658 19.0821 22.8807C18.8409 23.1166 18.5869 23.371 18.3269 23.6382C17.1951 24.8015 15.876 26.2823 15.0139 27.5755C14.6247 28.1593 14.6922 28.9349 15.1764 29.4427C15.6606 29.9505 16.4321 30.0548 17.0337 29.6938C18.1902 28.9999 19.2288 27.9716 20.0513 27.1574L20.0667 27.1421L20.1062 27.103C20.5252 26.6881 20.8886 26.3284 21.2311 26.0259C21.4585 25.8251 21.6462 25.6775 21.8 25.5728C22.0726 25.8052 22.3326 26.0202 22.5647 26.2076C23.2108 26.7291 24.5961 27.6909 25.7609 28.4851C26.3558 28.8908 26.9132 29.2662 27.3216 29.5401C27.526 29.6771 27.6932 29.7888 27.8096 29.8664L27.9442 29.9561L27.9797 29.9797L27.9888 29.9858L27.9912 29.9874L27.9919 29.9878L27.992 29.9879Z" fill="black"/>
<defs>
<filter id="filter0_d_156_4372" x="0" y="-0.00012207" width="47.4492" height="46.0001" filterUnits="userSpaceOnUse" color-interpolation-filters="sRGB">
<feFlood flood-opacity="0" result="BackgroundImageFix"/>
<feColorMatrix in="SourceAlpha" type="matrix" values="0 0 0 0 0 0 0 0 0 0 0 0 0 0 0 0 0 0 127 0" result="hardAlpha"/>
<feOffset dx="2" dy="2"/>
<feColorMatrix type="matrix" values="0 0 0 0 0.694118 0 0 0 0 0.721569 0 0 0 0 0.741176 0 0 0 1 0"/>
<feBlend mode="multiply" in2="BackgroundImageFix" result="effect1_dropShadow_156_4372"/>
<feBlend mode="normal" in="SourceGraphic" in2="effect1_dropShadow_156_4372" result="shape"/>
</filter>
</defs>
</svg>
