<svg width="37" height="34" viewBox="0 0 37 34" fill="none" xmlns="http://www.w3.org/2000/svg">
<path d="M33.9637 13.5631L17.6545 2.23633L1.82257 14.6969C2.55196 14.6969 2.99027 15.0103 3.95943 15.3026C4.92859 15.5949 5.28785 15.3319 5.52982 15.917C6.05982 17.1988 5.3055 27.7408 5.9983 31.3797H13.5211C13.5211 31.3797 13.5211 26.6743 13.5211 24.2448C13.5211 21.8154 14.2308 20.054 14.2308 20.054C16.7433 19.7074 22.2808 19.7334 22.3847 20.5652C22.4887 21.397 23.4141 27.091 23.3708 31.3797H31.2452M33.9637 13.5631L35 14.2829H31.7308C31.7308 14.2829 31.7308 27.9785 32.3646 31.3797C29.8593 31.3797 31.2452 31.3797 31.2452 31.3797M33.9637 13.5631C32.9509 13.3232 30.8508 12.9873 30.5523 13.5631C30.1791 14.2829 30.8721 26.0924 31.2452 31.3797" stroke="black" stroke-width="3" stroke-linecap="round" stroke-linejoin="round"/>
</svg>
