<svg width="388" height="6" viewBox="0 0 388 6" fill="none" xmlns="http://www.w3.org/2000/svg">
<path d="M386 3.97906C368.404 3.97906 368.404 2.4084 350.818 2.4084C333.222 2.4084 333.222 3.59163 315.636 3.59162C298.04 3.59162 298.04 2.53405 280.455 2.53405C262.859 2.53405 262.859 3.73821 245.273 3.73821C227.677 3.73821 227.677 2.30368 210.091 2.30368C192.495 2.30368 192.495 2.12567 174.909 2.12567C157.313 2.12567 157.313 2.65969 139.727 2.65969C122.131 2.65969 122.131 3.84291 104.545 3.84291C86.9596 3.84291 86.9596 2.00001 69.3636 2.00001C51.7677 2 51.7677 2.99475 34.1818 2.99475C16.5859 2.99475 16.5859 3.99997 -1 3.99997" stroke="black" stroke-width="3" stroke-miterlimit="10" stroke-linecap="round" stroke-linejoin="round"/>
</svg>
