<svg width="64" height="62" viewBox="0 0 64 62" fill="none" xmlns="http://www.w3.org/2000/svg">
<g filter="url(#filter0_d_124_6431)">
<path d="M3.04616 27.9938C1.96384 42.5107 8.08289 59 32.2037 59C47.9615 59 57.8216 49.5451 60.5957 34.2582C63.3686 18.9713 51.5169 4.19392 36.1336 2.41045C20.7503 0.626985 4.48925 8.63785 3.04616 27.9938Z" fill="white"/>
<path d="M3.04616 27.9938C1.96384 42.5107 8.08289 59 32.2037 59C47.9615 59 57.8216 49.5451 60.5957 34.2582C63.3686 18.9713 51.5169 4.19392 36.1336 2.41045C20.7503 0.626985 4.48925 8.63785 3.04616 27.9938Z" stroke="black" stroke-width="2" stroke-miterlimit="10" stroke-linecap="round" stroke-linejoin="round"/>
</g>
<path fill-rule="evenodd" clip-rule="evenodd" d="M27.9334 43.8632C27.4581 44.2724 27.2876 44.934 27.5058 45.5219C27.724 46.1099 28.2849 46.5 28.912 46.5H29.572C29.794 46.5 30.0133 46.4507 30.2139 46.3557C31.7904 45.6093 35.828 42.9204 39.4167 40.0888C41.2274 38.66 42.9868 37.1462 44.3074 35.7678C44.9655 35.0808 45.5491 34.3922 45.9775 33.7367C46.3741 33.13 46.7809 32.341 46.7809 31.5C46.7809 31.0916 46.662 30.7242 46.5545 30.4597C46.439 30.1756 46.2856 29.8891 46.1187 29.613C45.7848 29.0605 45.329 28.4388 44.811 27.7908C43.7706 26.4891 42.378 24.9561 40.9362 23.4463C38.0485 20.4227 34.867 17.3924 33.6657 16.3003C32.4579 15.2023 31.6369 14.5568 31.094 14.1753C30.8217 13.984 30.6127 13.8545 30.4542 13.766C30.3746 13.7215 30.3061 13.6865 30.247 13.6587C30.2174 13.6448 30.1899 13.6325 30.1644 13.6217C30.1516 13.6163 30.1392 13.6113 30.1273 13.6065L30.1097 13.5997L30.1011 13.5964L30.0968 13.5948L30.0947 13.594C30.0939 13.5937 30.093 13.5934 29.8101 14.357L29.81 14.357L30.0926 13.5932C29.926 13.5316 29.7497 13.5 29.572 13.5C29.2092 13.5 28.9324 13.6217 28.7921 13.6941C28.6369 13.7743 28.5139 13.8655 28.4308 13.933C28.2647 14.0678 28.1258 14.2167 28.0335 14.3216C27.9343 14.4343 27.8495 14.5417 27.7915 14.6177C27.7618 14.6567 27.7372 14.6899 27.7193 14.7144L27.6973 14.745L27.69 14.7551L27.6874 14.7588L27.6864 14.7603L27.6859 14.7609L27.6857 14.7612C27.6856 14.7614 27.6855 14.7615 28.912 15.625L27.6855 14.7615C27.3631 15.2195 27.3227 15.8189 27.5806 16.3159C27.7739 16.6884 28.1106 16.9569 28.5028 17.0682C28.5156 17.0773 28.5305 17.0881 28.5474 17.1008C28.7118 17.2243 28.9483 17.4303 29.254 17.7234C29.8588 18.3033 30.6148 19.1075 31.4079 19.9786C31.9324 20.5547 32.4835 21.1725 33.0096 21.7623C34.0069 22.8803 34.9143 23.8975 35.3806 24.3391C37.0682 25.9372 38.6362 27.5328 39.8932 28.9017C35.8602 28.8124 30.8932 28.7745 26.5871 28.8226C23.8413 28.8532 21.3424 28.9191 19.5188 29.0308C18.6143 29.0863 17.8358 29.1553 17.2653 29.2442C16.9917 29.2868 16.6937 29.3446 16.4351 29.4331C16.3149 29.4742 16.1079 29.5531 15.902 29.6993C15.7337 29.8189 15.2333 30.2239 15.2186 30.9675C15.2024 31.784 15.7739 32.2137 15.9679 32.3363C16.1944 32.4794 16.4188 32.546 16.5396 32.5779C16.8055 32.6481 17.1112 32.6842 17.389 32.7072C17.9707 32.7553 18.7678 32.7702 19.6928 32.7656C21.5572 32.7562 24.1121 32.6653 26.8899 32.5499C28.0762 32.5006 29.3034 32.4469 30.5386 32.3928H30.5387C34.5967 32.2151 38.7407 32.0336 41.799 31.994C41.6852 32.1118 41.5589 32.2391 41.4198 32.376C40.4579 33.3221 39.0555 34.558 37.4536 35.9196C35.9383 37.2075 34.2068 38.638 32.5544 40.0031L32.5541 40.0034L32.554 40.0035C30.8098 41.4445 29.1538 42.8126 27.9334 43.8632Z" fill="black"/>
<defs>
<filter id="filter0_d_124_6431" x="0.00012207" y="-0.000244141" width="64.0007" height="62.0002" filterUnits="userSpaceOnUse" color-interpolation-filters="sRGB">
<feFlood flood-opacity="0" result="BackgroundImageFix"/>
<feColorMatrix in="SourceAlpha" type="matrix" values="0 0 0 0 0 0 0 0 0 0 0 0 0 0 0 0 0 0 127 0" result="hardAlpha"/>
<feOffset dx="2" dy="2"/>
<feColorMatrix type="matrix" values="0 0 0 0 0.694118 0 0 0 0 0.721569 0 0 0 0 0.741176 0 0 0 1 0"/>
<feBlend mode="multiply" in2="BackgroundImageFix" result="effect1_dropShadow_124_6431"/>
<feBlend mode="normal" in="SourceGraphic" in2="effect1_dropShadow_124_6431" result="shape"/>
</filter>
</defs>
</svg>
