<svg width="109" height="62" viewBox="0 0 109 62" fill="none" xmlns="http://www.w3.org/2000/svg">
<path d="M11.5 59V20.5C11.5 19.3954 10.6046 18.5 9.5 18.5H3C1.89543 18.5 1 17.6046 1 16.5V3C1 1.89543 1.89543 1 3 1H106C107.105 1 108 1.89543 108 3V16.5C108 17.6046 107.105 18.5 106 18.5H99.5C98.3954 18.5 97.5 19.3954 97.5 20.5V59C97.5 60.1046 96.6046 61 95.5 61H13.5C12.3954 61 11.5 60.1046 11.5 59Z" fill="white" stroke="#525252" stroke-width="2"/>
<path d="M52.16 26.57C51.92 26.58 51.725 26.55 51.575 26.48C51.425 26.4 51.345 26.275 51.335 26.105C51.325 25.925 51.395 25.79 51.545 25.7C51.695 25.6 51.88 25.545 52.1 25.535C52.31 25.525 52.535 25.53 52.775 25.55C53.025 25.56 53.275 25.59 53.525 25.64C53.785 25.69 54.035 25.76 54.275 25.85C54.515 25.93 54.735 26.03 54.935 26.15C55.485 26.47 55.91 26.905 56.21 27.455C56.51 27.995 56.65 28.625 56.63 29.345C56.61 30.035 56.465 30.625 56.195 31.115C55.925 31.605 55.55 32.07 55.07 32.51C54.92 32.64 54.745 32.775 54.545 32.915C54.355 33.045 54.15 33.175 53.93 33.305C53.72 33.425 53.505 33.54 53.285 33.65C53.065 33.75 52.86 33.835 52.67 33.905C53.04 33.835 53.445 33.78 53.885 33.74C54.325 33.7 54.775 33.675 55.235 33.665C55.705 33.655 56.165 33.655 56.615 33.665C57.075 33.675 57.5 33.695 57.89 33.725C58.13 33.745 58.31 33.795 58.43 33.875C58.55 33.945 58.61 34.065 58.61 34.235C58.61 34.585 58.375 34.76 57.905 34.76C57.735 34.76 57.57 34.74 57.41 34.7C57.26 34.66 57.14 34.64 57.05 34.64C56.21 34.62 55.48 34.62 54.86 34.64C54.25 34.66 53.685 34.695 53.165 34.745C53.035 34.765 52.88 34.785 52.7 34.805C52.52 34.825 52.335 34.845 52.145 34.865C51.965 34.875 51.79 34.885 51.62 34.895C51.46 34.905 51.33 34.91 51.23 34.91C51.04 34.91 50.885 34.865 50.765 34.775C50.655 34.685 50.6 34.555 50.6 34.385C50.6 34.045 50.87 33.77 51.41 33.56C51.92 33.36 52.405 33.125 52.865 32.855C53.335 32.575 53.77 32.26 54.17 31.91C54.6 31.53 54.94 31.12 55.19 30.68C55.44 30.23 55.555 29.735 55.535 29.195C55.515 28.685 55.4 28.255 55.19 27.905C54.98 27.555 54.7 27.28 54.35 27.08C54.02 26.89 53.665 26.755 53.285 26.675C52.915 26.595 52.54 26.56 52.16 26.57Z" fill="black"/>
</svg>
