<svg width="109" height="47" viewBox="0 0 109 47" fill="none" xmlns="http://www.w3.org/2000/svg">
<path d="M11.5 44V15C11.5 13.8954 10.6046 13 9.5 13H3C1.89543 13 1 12.1046 1 11V3C1 1.89543 1.89543 1 3 1H106C107.105 1 108 1.89543 108 3V11C108 12.1046 107.105 13 106 13H99.5C98.3954 13 97.5 13.8954 97.5 15V44C97.5 45.1046 96.6046 46 95.5 46H13.5C12.3954 46 11.5 45.1046 11.5 44Z" fill="white" stroke="#525252" stroke-width="2"/>
<path d="M51.74 18.265C52.09 18.165 52.475 18.1 52.895 18.07C53.315 18.04 53.755 18.05 54.215 18.1C55.025 18.19 55.67 18.455 56.15 18.895C56.63 19.325 56.87 19.9 56.87 20.62C56.87 20.84 56.825 21.085 56.735 21.355C56.645 21.615 56.49 21.87 56.27 22.12C56.07 22.35 55.835 22.53 55.565 22.66C55.295 22.79 54.98 22.895 54.62 22.975C55.05 22.985 55.445 23.06 55.805 23.2C56.165 23.34 56.475 23.515 56.735 23.725C57.045 23.985 57.29 24.305 57.47 24.685C57.65 25.055 57.715 25.495 57.665 26.005C57.585 26.775 57.285 27.36 56.765 27.76C56.255 28.16 55.59 28.415 54.77 28.525C54.41 28.575 54.04 28.59 53.66 28.57C53.28 28.55 52.905 28.49 52.535 28.39C52.165 28.29 51.82 28.145 51.5 27.955C51.18 27.765 50.9 27.525 50.66 27.235C50.52 27.065 50.45 26.9 50.45 26.74C50.46 26.58 50.53 26.455 50.66 26.365C50.8 26.255 50.94 26.23 51.08 26.29C51.23 26.35 51.35 26.44 51.44 26.56C51.59 26.76 51.78 26.935 52.01 27.085C52.24 27.225 52.485 27.34 52.745 27.43C53.005 27.51 53.275 27.565 53.555 27.595C53.845 27.625 54.125 27.625 54.395 27.595C55.085 27.515 55.625 27.315 56.015 26.995C56.405 26.665 56.61 26.245 56.63 25.735C56.65 25.115 56.36 24.6 55.76 24.19C55.43 23.96 55 23.795 54.47 23.695C53.95 23.595 53.39 23.555 52.79 23.575C52.56 23.585 52.375 23.545 52.235 23.455C52.105 23.355 52.04 23.21 52.04 23.02C52.04 22.82 52.11 22.68 52.25 22.6C52.4 22.52 52.59 22.47 52.82 22.45C53.17 22.43 53.515 22.39 53.855 22.33C54.195 22.26 54.46 22.175 54.65 22.075C55 21.915 55.28 21.725 55.49 21.505C55.7 21.275 55.805 20.975 55.805 20.605C55.805 20.155 55.655 19.81 55.355 19.57C55.055 19.32 54.645 19.155 54.125 19.075C53.725 19.015 53.33 19.005 52.94 19.045C52.55 19.085 52.225 19.14 51.965 19.21C51.825 19.26 51.685 19.26 51.545 19.21C51.405 19.16 51.31 19.06 51.26 18.91C51.21 18.77 51.235 18.645 51.335 18.535C51.435 18.415 51.57 18.325 51.74 18.265Z" fill="black"/>
</svg>
