<svg width="109" height="74" viewBox="0 0 109 74" fill="none" xmlns="http://www.w3.org/2000/svg">
<path d="M11.5 71V22.5C11.5 21.3954 10.6046 20.5 9.5 20.5H3C1.89543 20.5 1 19.6046 1 18.5V3C1 1.89543 1.89543 1 3 1H106C107.105 1 108 1.89543 108 3V18.5C108 19.6046 107.105 20.5 106 20.5H99.5C98.3954 20.5 97.5 21.3954 97.5 22.5V71C97.5 72.1046 96.6046 73 95.5 73H13.5C12.3954 73 11.5 72.1046 11.5 71Z" fill="white" stroke="#525252" stroke-width="2"/>
<path d="M55.025 31.19C55.225 31.19 55.36 31.255 55.43 31.385C55.51 31.515 55.55 31.705 55.55 31.955C55.55 32.395 55.54 32.81 55.52 33.2C55.51 33.59 55.495 33.97 55.475 34.34C55.455 34.7 55.435 35.06 55.415 35.42C55.405 35.78 55.4 36.145 55.4 36.515C55.4 36.655 55.4 36.805 55.4 36.965C55.4 37.115 55.405 37.275 55.415 37.445C55.415 37.675 55.425 37.935 55.445 38.225C55.465 38.505 55.485 38.785 55.505 39.065C55.535 39.345 55.56 39.615 55.58 39.875C55.6 40.125 55.61 40.335 55.61 40.505C55.61 40.835 55.56 41.065 55.46 41.195C55.36 41.325 55.225 41.39 55.055 41.39C54.855 41.39 54.695 41.325 54.575 41.195C54.465 41.065 54.41 40.84 54.41 40.52C54.41 39.78 54.385 39.065 54.335 38.375C54.295 37.675 54.275 36.925 54.275 36.125C54.275 35.685 54.28 35.285 54.29 34.925C54.31 34.555 54.33 34.205 54.35 33.875C54.37 33.545 54.385 33.23 54.395 32.93C54.415 32.63 54.425 32.325 54.425 32.015C54.415 31.725 54.455 31.515 54.545 31.385C54.635 31.255 54.795 31.19 55.025 31.19Z" fill="black"/>
</svg>
