<svg width="64" height="62" viewBox="0 0 64 62" fill="none" xmlns="http://www.w3.org/2000/svg">
<g filter="url(#filter0_d_375_3096)">
<path d="M3.04616 27.9938C1.96384 42.5107 8.08289 59 32.2037 59C47.9615 59 57.8216 49.5451 60.5957 34.2582C63.3686 18.9713 51.5169 4.19392 36.1336 2.41045C20.7503 0.626985 4.48925 8.63785 3.04616 27.9938Z" fill="white"/>
<path d="M3.04616 27.9938C1.96384 42.5107 8.08289 59 32.2037 59C47.9615 59 57.8216 49.5451 60.5957 34.2582C63.3686 18.9713 51.5169 4.19392 36.1336 2.41045C20.7503 0.626985 4.48925 8.63785 3.04616 27.9938Z" stroke="black" stroke-width="2" stroke-miterlimit="10" stroke-linecap="round" stroke-linejoin="round"/>
</g>
<path d="M18.7122 27.5599H18.1562C19.0968 29.5464 24.9063 41.0251 27.0312 41.0251C29.1562 41.0251 36.2277 32.1387 43.8432 18.9749C37.8596 27.1917 32.3279 36.5549 28.3947 38.6316C27.3947 39.1596 22.8788 32.3999 18.7122 27.5599Z" stroke="black" stroke-width="3" stroke-miterlimit="10" stroke-linecap="round" stroke-linejoin="round"/>
<defs>
<filter id="filter0_d_375_3096" x="0" y="-0.000244141" width="64.001" height="62.0002" filterUnits="userSpaceOnUse" color-interpolation-filters="sRGB">
<feFlood flood-opacity="0" result="BackgroundImageFix"/>
<feColorMatrix in="SourceAlpha" type="matrix" values="0 0 0 0 0 0 0 0 0 0 0 0 0 0 0 0 0 0 127 0" result="hardAlpha"/>
<feOffset dx="2" dy="2"/>
<feColorMatrix type="matrix" values="0 0 0 0 0.694118 0 0 0 0 0.721569 0 0 0 0 0.741176 0 0 0 1 0"/>
<feBlend mode="multiply" in2="BackgroundImageFix" result="effect1_dropShadow_375_3096"/>
<feBlend mode="normal" in="SourceGraphic" in2="effect1_dropShadow_375_3096" result="shape"/>
</filter>
</defs>
</svg>
