<svg width="39" height="38" viewBox="0 0 39 38" fill="none" xmlns="http://www.w3.org/2000/svg">
<path d="M6.49902 35.8547C7.61927 29.7184 10.5573 23.0538 18.399 23.0538M18.399 23.0538C26.2407 23.0538 31.8419 25.5084 32.9621 35.3266C32.7852 35.6787 32.2829 36.2773 31.6892 35.8547C30.947 35.3266 30.8075 23.0538 18.399 23.0538Z" stroke="black" stroke-width="3" stroke-miterlimit="10" stroke-linecap="round" stroke-linejoin="round"/>
<path d="M17.4698 7.93298C15.5841 8.64749 14.3388 9.94229 13.7598 11.5386C13.1926 13.1023 13.3024 14.8431 13.8781 16.4525C14.5256 18.2627 16.036 19.6737 17.6766 20.4223C19.3044 21.1652 21.3762 21.3827 23.039 20.2967C24.3302 19.4535 25.1942 18.4568 25.6468 17.2388C26.088 16.0517 26.0814 14.8028 25.9236 13.5686C25.72 11.9765 24.6276 10.2614 23.2147 9.11027C21.7684 7.93191 19.6625 7.10209 17.4698 7.93298Z" stroke="black" stroke-width="3" stroke-miterlimit="10" stroke-linecap="round" stroke-linejoin="round"/>
</svg>
