<svg width="64" height="62" viewBox="0 0 64 62" fill="none" xmlns="http://www.w3.org/2000/svg">
<g filter="url(#filter0_d_124_6428)">
<path d="M3.04616 27.9938C1.96384 42.5107 8.08289 59 32.2037 59C47.9615 59 57.8216 49.5451 60.5957 34.2582C63.3686 18.9713 51.5169 4.19392 36.1336 2.41045C20.7503 0.626985 4.48925 8.63785 3.04616 27.9938Z" fill="white"/>
<path d="M3.04616 27.9938C1.96384 42.5107 8.08289 59 32.2037 59C47.9615 59 57.8216 49.5451 60.5957 34.2582C63.3686 18.9713 51.5169 4.19392 36.1336 2.41045C20.7503 0.626985 4.48925 8.63785 3.04616 27.9938Z" stroke="black" stroke-width="2" stroke-miterlimit="10" stroke-linecap="round" stroke-linejoin="round"/>
</g>
<path d="M32.0226 17C30.7026 17.625 23.2064 24.4159 20.8026 26.6197C16.3128 30.736 16.1826 30.3429 16.1826 30.75C16.1826 31.0203 19.8421 33.3244 23.2043 36.4628C27.6174 40.582 32.0226 45.75 32.0226 45.75C33.9875 45.75 26.5938 37.1304 25.8888 36.4628C22.1947 32.9646 20.0166 33.5966 19.3566 32.3466C18.8286 31.3466 27.8426 21.1667 32.6826 17L32.0226 17ZM18.1953 30.75C25.1451 30.4769 41.5991 31.4116 45.8173 29.9305C47.8117 31.6443 27.0469 34.6596 18.1953 30.75Z" stroke="black" stroke-width="3" stroke-miterlimit="10" stroke-linecap="round" stroke-linejoin="round"/>
<defs>
<filter id="filter0_d_124_6428" x="0" y="-0.000244141" width="64.001" height="62.0002" filterUnits="userSpaceOnUse" color-interpolation-filters="sRGB">
<feFlood flood-opacity="0" result="BackgroundImageFix"/>
<feColorMatrix in="SourceAlpha" type="matrix" values="0 0 0 0 0 0 0 0 0 0 0 0 0 0 0 0 0 0 127 0" result="hardAlpha"/>
<feOffset dx="2" dy="2"/>
<feColorMatrix type="matrix" values="0 0 0 0 0.694118 0 0 0 0 0.721569 0 0 0 0 0.741176 0 0 0 1 0"/>
<feBlend mode="multiply" in2="BackgroundImageFix" result="effect1_dropShadow_124_6428"/>
<feBlend mode="normal" in="SourceGraphic" in2="effect1_dropShadow_124_6428" result="shape"/>
</filter>
</defs>
</svg>
