<svg width="91" height="95" viewBox="0 0 91 95" fill="none" xmlns="http://www.w3.org/2000/svg">
<circle cx="46" cy="51" r="44" fill="#D9D9D9"/>
<ellipse cx="45.5593" cy="44.5" rx="42.4406" ry="43.5" fill="white"/>
<path d="M42.4806 56.5142C43.8309 56.7221 52.3606 57.7332 55.3779 56.5142C52.5902 58.4551 43.4507 57.2642 41.0269 56.8715C41.0616 56.6405 41.4004 56.3479 42.4806 56.5142Z" stroke="#737882" stroke-width="1.92857" stroke-linecap="round" stroke-linejoin="round"/>
<path d="M44.8121 40.6423C46.3968 40.2902 46.492 37.729 46.492 35.528C46.492 34.7064 46.3852 33.1585 45.4623 32.7244C44.5394 32.2902 42.955 32.3491 42.3472 33.0711C41.7393 33.7931 41.7478 35.2186 41.907 37.2089C42.0662 39.1991 43.2275 40.9945 44.8121 40.6423Z" fill="#737882"/>
<path d="M55.7088 39.126C56.797 38.2348 56.3393 36.2106 56.3109 34.7799C56.2825 33.3493 56.146 32.8009 55.1482 32.5897C54.1503 32.3784 52.3015 32.5179 51.8752 33.3599C51.4488 34.202 51.5574 36.2152 52.1683 38.1161C52.7792 40.017 54.6206 40.0172 55.7088 39.126Z" fill="#737882"/>
<path d="M53.2842 62.7774C56.0893 61.5659 59.0005 75.1585 54.3224 76.1743C51.8697 76.7069 50.5753 72.0709 50.6239 69.2276C50.736 62.6785 56.7032 64.9067 53.5948 74.4279C50.5482 83.7599 46.4697 78.9468 45.8289 70.5052C45.2257 62.56 51.1615 65.2542 48.646 73.6834C45.8706 82.9832 41.6611 80.3931 39.9986 73.0534C39.3591 70.2298 39.5013 66.4599 40.4551 65.2071C41.251 64.1617 43.8417 67.4874 44.2556 70.1042C44.2844 70.3682 44.0746 70.2851 43.9787 69.7986C43.5649 67.1817 41.0978 63.734 40.3019 64.7794C39.348 66.0322 38.9414 69.4344 39.581 72.258C40.9952 78.5017 44.2526 81.3083 46.9024 76.2824M53.2821 62.7771C56.244 62.3204 58.1382 76.8359 53.9048 75.3789C51.5609 74.5722 51.0068 72.9475 51.0555 70.1042C51.1676 63.5551 56.5006 64.5652 53.3922 74.0865C52.0336 78.248 48.9344 80.6731 46.9024 76.2824M46.9024 76.2824C46.157 74.6719 45.7778 72.6675 45.5757 70.006C44.9726 62.0609 50.7439 64.4587 48.2283 72.888C47.8139 74.2766 47.3675 75.4002 46.9024 76.2824Z" stroke="#737882" stroke-width="1.92857" stroke-linecap="round" stroke-linejoin="round"/>
<path d="M69.319 48.4741C69.319 48.4741 50.8614 49.5221 50.1793 44.9418C49.9895 43.6677 49.8592 45.4102 49.9082 45.755C50.5159 50.0314 69.319 48.4741 69.319 48.4741Z" stroke="#737882" stroke-width="1.92857" stroke-linecap="round" stroke-linejoin="round"/>
<path d="M46.8599 16.6394C41.3298 14.9985 25.7243 15.5396 25.5991 31.5676C25.4734 47.6579 27.3159 54.8223 32.8111 61.9747C36.828 67.2031 54.9004 79.9648 61.537 57.1749M46.8599 16.6394C42.3 16.0178 25.3836 15.8803 25.2583 31.9084C25.1326 47.9986 26.761 54.8234 31.4567 62.5244C35.7617 69.5846 54.9004 79.9648 61.537 57.1749M46.8599 16.6394C49.5866 17.4484 56.8101 21.899 60.0801 16.6394C63.35 11.3798 53.5092 7.98684 49.7671 15.8772C46.0249 23.7676 59.6342 27.3821 63.6009 24.1969C71.0979 18.1769 64.7539 12.7863 62.417 19.7585C60.0801 26.7307 72.6749 26.5435 74.6495 20.3665C73.1704 24.9935 66.375 26.9025 63.7175 24.316M46.8599 16.6394C47.4551 16.816 48.8312 17.3963 49.7671 17.781M61.537 57.1749C63.8101 49.3692 62.8961 37.5449 59.1173 28.6534M49.7671 17.781C49.8714 17.2494 50.133 17.1039 50.4099 16.5201C54.1521 8.6297 63.0598 11.6171 60.3666 17.0363C58.7116 20.3665 53.1184 19.1589 49.7671 17.781ZM49.7671 17.781C48.4612 24.4342 59.9278 27.3599 63.6009 24.4104C63.6401 24.3789 63.6789 24.3475 63.7175 24.316M63.7175 24.316C62.8272 23.4496 62.0901 21.7767 62.6765 20.0272C65.0012 13.0915 71.0384 18.3388 63.7175 24.316Z" stroke="#737882" stroke-width="1.92857" stroke-linecap="round" stroke-linejoin="round"/>
<path d="M15.6101 78.2967C16.1205 74.2003 22.9395 69.2618 32.2963 68.9177" stroke="#737882" stroke-width="1.92857" stroke-linecap="round" stroke-linejoin="round"/>
<path d="M59.9918 67.5416C72.8935 66.8535 77.8702 72.3514 77.022 79.5832" stroke="#737882" stroke-width="1.92857" stroke-linecap="round" stroke-linejoin="round"/>
<path d="M19.558 79.9063C1.41908 67.2517 -2.76573 35.958 8.9875 19.3201M19.558 79.9063C18.3364 79.0864 13.0808 74.1792 9.59224 66.6565C6.63802 60.2859 2.95071 49.6032 3.50906 42.2928C3.92752 36.8142 5.81532 23.8331 8.9875 19.3201M19.558 79.9063C29.8364 87.077 43.479 89.5211 55.8893 86.4431M8.9875 19.3201C20.7407 2.68219 54.2382 -7.64717 78.4156 15.3597M55.8893 86.4431C65.3804 84.0892 74.1508 78.5053 80.1442 69.3357C93.9744 48.1764 88.7089 31.7831 80.2017 18.9893C87.6104 30.131 87.9153 44.9556 85.67 53.9879C83.4247 63.0203 75.2076 75.6064 69.1884 79.6885C61.7727 84.7178 58.6328 85.1572 55.8893 86.4431Z" stroke="black" stroke-width="3" stroke-linecap="round" stroke-linejoin="round"/>
</svg>
