<svg width="64" height="62" viewBox="0 0 64 62" fill="none" xmlns="http://www.w3.org/2000/svg">
<g filter="url(#filter0_d_97_3863)">
<path d="M3.04616 27.9938C1.96384 42.5107 8.08289 59 32.2037 59C47.9615 59 57.8216 49.5451 60.5957 34.2582C63.3686 18.9713 51.5169 4.19392 36.1336 2.41045C20.7503 0.626985 4.48925 8.63785 3.04616 27.9938Z" fill="white"/>
<path d="M3.04616 27.9938C1.96384 42.5107 8.08289 59 32.2037 59C47.9615 59 57.8216 49.5451 60.5957 34.2582C63.3686 18.9713 51.5169 4.19392 36.1336 2.41045C20.7503 0.626985 4.48925 8.63785 3.04616 27.9938Z" stroke="black" stroke-width="2" stroke-miterlimit="10" stroke-linecap="round" stroke-linejoin="round"/>
</g>
<path d="M24.2612 45.4583C19.3595 45.4583 17.7943 43.9364 17.7943 40.7787C17.7943 37.621 17.7943 33.7722 17.7943 32.5167C17.7943 31.2613 18.9955 28.8732 21.6563 28.8732C22.839 28.8732 23.4725 28.8732 23.4725 28.8732C19.0246 28.8732 18.3042 30.8302 18.3042 32.5167C18.3042 34.2033 18.3042 35.9613 18.3042 40.7787C18.3042 44.6327 22.2755 45.5042 24.2612 45.4583ZM24.2612 45.4583C29.1629 45.4583 37.2534 45.269 39.7438 45.269M39.7438 45.269C44.9162 45.269 45.1398 43.2906 45.3046 40.2851C45.4693 37.2796 45.6753 33.968 45.7165 32.1419M39.7438 45.269C44.9162 45.269 45.0742 44.3269 45.239 41.3214M45.7165 32.1419C45.7576 30.3157 43.9865 29.1451 42.6684 29.1451C41.3503 29.1451 39.7438 29.1451 39.7438 29.1451C41.1759 28.8558 43.9047 28.5641 44.9162 29.5263C46.1807 30.729 46.0682 31.9097 45.968 32.7887C45.8678 33.6676 45.2757 40.6361 45.239 41.3214M45.7165 32.1419C45.6753 33.968 45.4037 38.3159 45.239 41.3214" stroke="black" stroke-width="3" stroke-linecap="round" stroke-linejoin="round"/>
<path d="M31.5905 17.5031C32.1169 17.422 38.475 21.5579 38.475 21.5579L32.3213 21.6859C32.3213 22.5313 32.8009 35.0685 32.3213 36.1875C31.9376 37.0828 31.6142 36.5605 31.5005 36.1875V21.703L24.5261 21.8482C24.5261 21.8482 25.9953 20.3503 27.9849 19.1077C29.9745 17.8651 31.064 17.5843 31.5905 17.5031Z" fill="black"/>
<path d="M31.5005 21.703L24.5261 21.8482C24.5261 21.8482 25.9953 20.3503 27.9849 19.1077C29.9745 17.8651 31.064 17.5843 31.5905 17.5031C32.1169 17.422 38.475 21.5579 38.475 21.5579L32.3213 21.6859M31.5005 21.703V36.1875C31.6142 36.5605 31.9376 37.0828 32.3213 36.1875C32.8009 35.0685 32.3213 22.5313 32.3213 21.6859M31.5005 21.703L32.3213 21.6859" stroke="black" stroke-width="3" stroke-linecap="round" stroke-linejoin="round"/>
<defs>
<filter id="filter0_d_97_3863" x="9.15527e-05" y="0" width="64.0008" height="62" filterUnits="userSpaceOnUse" color-interpolation-filters="sRGB">
<feFlood flood-opacity="0" result="BackgroundImageFix"/>
<feColorMatrix in="SourceAlpha" type="matrix" values="0 0 0 0 0 0 0 0 0 0 0 0 0 0 0 0 0 0 127 0" result="hardAlpha"/>
<feOffset dx="2" dy="2"/>
<feColorMatrix type="matrix" values="0 0 0 0 0.694118 0 0 0 0 0.721569 0 0 0 0 0.741176 0 0 0 1 0"/>
<feBlend mode="multiply" in2="BackgroundImageFix" result="effect1_dropShadow_97_3863"/>
<feBlend mode="normal" in="SourceGraphic" in2="effect1_dropShadow_97_3863" result="shape"/>
</filter>
</defs>
</svg>
